<?xml version="1.0" encoding="utf-8"?>
<!-- Generator: Adobe Illustrator 17.0.0, SVG Export Plug-In . SVG Version: 6.00 Build 0)  -->
<!DOCTYPE svg PUBLIC "-//W3C//DTD SVG 1.1//EN" "http://www.w3.org/Graphics/SVG/1.1/DTD/svg11.dtd">
<svg version="1.1" id="Layer_1" xmlns="http://www.w3.org/2000/svg" xmlns:xlink="http://www.w3.org/1999/xlink" x="0px" y="0px"
	 width="841.667px" height="181.667px" viewBox="0 0 841.667 181.667" enable-background="new 0 0 841.667 181.667"
	 xml:space="preserve">
<polygon fill="#4B2368" points="493.433,54.021 493.433,37.181 433.409,37.181 433.409,123.77 493.433,123.77 493.433,106.208 
	457.715,106.208 457.715,87.017 487.426,87.017 487.426,70.208 457.715,70.208 457.715,54.021 "/>
<polygon fill="#4B2368" points="599.314,106.69 561.805,106.69 561.805,37.181 537.193,37.181 537.193,123.77 599.314,123.77 "/>
<path fill="#4B2368" d="M797.471,70.182c-16.603-3.745-22.405-4.165-22.405-10.78c0-6.131,8.219-8.04,12.966-8.04
	c7.654,0,16.685,1.786,25.897,6.517l6.698-15.939c-9.445-5.151-21.552-7.284-33.198-7.284c-22.907,0-38.261,9.285-38.911,27.395
	c-0.656,16.508,12.776,22.686,25.121,25.248c11.898,2.456,23.97,4.558,24.209,11.629c0.225,6.52-5.637,9.309-16.706,9.309
	c-10.243,0-19.76-3.298-29.497-7.363l-5.682,17.308c11.181,4.757,22.541,7.384,34.255,7.384c16.261,0,28.124-2.537,36.875-10.742
	c6.055-5.634,8.038-12.439,8.038-18.918C825.13,82.22,816.604,74.499,797.471,70.182L797.471,70.182z"/>
<polygon fill="#4B2368" points="398.499,54.274 398.499,37.181 322.984,37.181 322.984,54.274 348.499,54.274 348.499,123.77 
	372.958,123.77 372.958,54.274 "/>
<path fill="#4B2368" d="M683.249,37.181v55.013c0,4.314,0,5.503-0.257,7.171c-0.786,5.254-5.868,8.29-13.98,8.398
	c-6.001-0.098-10.393-1.87-12.441-5.009c-1.033-1.617-1.535-4.509-1.535-9.133v-56.44H629.52v59.675
	c0,8.269,1.113,11.995,4.843,16.719c6.154,7.706,18.166,11.752,34.703,11.752c0.179,0,0.346,0,0.537,0c0.095,0,0.24,0,0.359,0
	c22.141,0,33.574-8.637,36.887-16.712c1.647-3.915,1.766-5.779,1.766-13.674v-57.76L683.249,37.181L683.249,37.181z"/>
<path fill="#4B2368" d="M334.513,13.475L191.41,41.962v9.978l0.461-0.113c94.534-22.983,142.642-36.799,143.03-36.894
	c0.533-0.137,0.727-0.556,0.648-0.907C335.472,13.655,335.085,13.356,334.513,13.475L334.513,13.475z"/>
<path fill="#7DC242" d="M214.417,21.441c2.207-1.427,2.838-0.544,2.196,1.067c-1.052,2.574-5.902,18.058-41.924,47.628
	c-9.398,7.706-16.087,12.034-29.623,20.041C167.225,59.11,199.592,31.064,214.417,21.441L214.417,21.441z M218.16,10.748
	c-6.954,0.398-19.833,10.698-26.901,16.822C163.1,51.927,142.17,74.319,126.947,97.769c-31.73,16.992-72.187,34.468-112.358,48.114
	l-0.967,0.333l-7.73,20.812l4.414-1.708c25.55-9.735,68.197-28.027,106.862-48.356c-2.178,5.802-3.271,11.14-3.271,16.017
	c0,3.623,0.602,6.997,1.821,10.07c2.429,6.127,7.22,10.759,13.867,13.411c9.893,3.94,23.396,4.018,38.798-0.639
	c39.349-11.935,86.019-48.549,96.18-55.826l0.385-0.275c0.395-0.295,0.431-0.728,0.255-1.021c-0.223-0.337-0.685-0.421-1.07-0.197
	h-0.008h0.008l-0.503,0.311c-10.912,6.531-63.896,37.993-98.335,47.234c-17.542,4.711-30.915,2.137-35.96-4.924
	c-1.748-2.406-2.592-5.451-2.592-9.008c0-6.936,3.267-15.785,9.564-25.607c5.787-3.301,11.195-6.525,16.071-9.583
	c33.606-18.887,72.32-55.602,73.969-78.014c0.01-0.154,0.01-0.333,0.01-0.496c0-1.932-0.838-3.927-2.305-5.401
	C222.478,11.41,220.396,10.608,218.16,10.748L218.16,10.748z M213.269,19.658v-0.016V19.658L213.269,19.658z"/>
<polygon fill="#4B2368" points="190.942,42.064 40.383,74.426 34.576,90.079 191.41,51.94 191.652,51.88 191.652,41.917 "/>
</svg>
